<svg width="347" height="97" viewBox="0 0 347 97" fill="none" xmlns="http://www.w3.org/2000/svg">
<path d="M121.99 28.53C121.99 25.95 123.88 24.66 127.66 24.66C129.28 24.66 132.37 24.72 136.93 24.84C141.97 25.08 145.78 25.2 148.36 25.2C150.46 25.2 153.01 25.08 156.01 24.84C158.05 24.72 159.34 24.66 159.88 24.66C163.18 24.78 165.97 25.38 168.25 26.46C168.91 26.76 169.45 27.12 169.87 27.54C170.29 27.96 170.5 28.65 170.5 29.61C170.5 30.93 170.08 32.07 169.24 33.03C168.4 33.93 167.38 34.38 166.18 34.38C164.86 34.38 162.94 34.2 160.42 33.84C158.2 33.42 156.25 33.21 154.57 33.21C152.95 33.21 151.72 33.24 150.88 33.3C150.7 35.28 150.61 40.02 150.61 47.52C150.61 56.46 150.88 65.52 151.42 74.7L151.6 77.31C151.6 79.77 150.19 81 147.37 81C145.15 81 143.65 80.49 142.87 79.47C142.09 78.39 141.7 76.77 141.7 74.61C141.7 70.35 141.58 65.04 141.34 58.68C141.1 53.4 140.98 49.65 140.98 47.43C140.98 45.93 141.16 41.34 141.52 33.66L130.99 33.75C127.63 33.75 125.29 33.45 123.97 32.85C122.65 32.19 121.99 30.75 121.99 28.53Z" fill="#33A5E4"/>
<path d="M208.292 76.68C208.292 78 207.572 79.11 206.132 80.01C204.752 80.91 203.462 81.36 202.262 81.36C199.982 81.36 198.152 81.09 196.772 80.55C195.452 79.95 194.222 78.87 193.082 77.31C191.522 78.69 189.392 79.74 186.692 80.46C183.992 81.12 181.502 81.45 179.222 81.45C175.502 81.45 172.442 80.46 170.042 78.48C167.642 76.44 166.442 73.47 166.442 69.57C166.442 67.89 166.892 66.36 167.792 64.98C168.692 63.54 169.922 62.28 171.482 61.2C173.222 60.06 175.202 59.19 177.422 58.59C179.642 57.93 181.952 57.6 184.352 57.6C185.612 57.6 187.112 57.84 188.852 58.32C190.592 58.8 191.942 59.31 192.902 59.85V58.41C192.902 55.17 192.122 52.95 190.562 51.75C189.002 50.49 186.482 49.86 183.002 49.86C181.982 49.86 180.962 50.07 179.942 50.49C178.982 50.91 177.872 51.48 176.612 52.2C174.932 53.1 173.342 53.55 171.842 53.55C171.302 53.55 170.792 53.19 170.312 52.47C169.832 51.69 169.592 51 169.592 50.4C169.592 48.66 170.402 47.16 172.022 45.9C173.702 44.64 175.682 43.71 177.962 43.11C180.242 42.45 182.282 42.12 184.082 42.12C185.882 42.12 187.952 42.48 190.292 43.2C192.632 43.86 194.552 44.79 196.052 45.99C197.852 47.55 199.232 49.38 200.192 51.48C201.212 53.52 201.722 55.77 201.722 58.23C201.722 59.01 201.662 60.18 201.542 61.74C201.422 63.42 201.362 64.86 201.362 66.06C201.362 66.6 201.302 67.41 201.182 68.49C201.062 69.81 201.002 70.86 201.002 71.64C201.002 72.36 201.272 72.99 201.812 73.53C202.352 74.01 202.982 74.25 203.702 74.25L206.222 74.16C206.882 74.16 207.392 74.4 207.752 74.88C208.112 75.36 208.292 75.96 208.292 76.68ZM179.312 74.34C181.892 74.34 184.052 74.07 185.792 73.53C187.532 72.99 189.632 72 192.092 70.56C192.332 69.54 192.482 68.19 192.542 66.51C189.242 64.95 186.512 64.17 184.352 64.17C181.892 64.17 179.702 64.62 177.782 65.52C175.862 66.42 174.902 68.01 174.902 70.29C174.902 71.43 175.382 72.39 176.342 73.17C177.302 73.95 178.292 74.34 179.312 74.34Z" fill="#A98DD1"/>
<path d="M216.436 64.8C216.436 61.44 216.466 58.89 216.526 57.15L216.616 48.6C216.616 45.12 216.526 41.31 216.346 37.17C216.286 35.91 216.076 34.17 215.716 31.95C215.236 28.59 214.996 26.07 214.996 24.39C214.996 21.63 216.376 20.25 219.136 20.25C220.876 20.25 222.106 20.73 222.826 21.69C223.606 22.59 224.146 24.03 224.446 26.01C225.046 30.15 225.346 35.01 225.346 40.59C225.346 42.27 225.286 44.79 225.166 48.15C226.306 46.35 227.776 44.94 229.576 43.92C231.436 42.9 233.266 42.39 235.066 42.39C240.286 42.39 244.786 44.55 248.566 48.87C249.586 50.37 250.486 52.17 251.266 54.27C252.106 56.31 252.526 58.08 252.526 59.58C252.526 62.22 252.226 64.65 251.626 66.87C251.086 69.09 250.096 71.25 248.656 73.35C247.216 75.45 245.386 77.16 243.166 78.48C241.006 79.8 238.486 80.46 235.606 80.46C233.086 80.46 230.806 79.95 228.766 78.93C226.786 77.91 225.196 76.56 223.996 74.88C223.696 76.38 223.036 77.88 222.016 79.38C220.996 80.82 219.826 81.54 218.506 81.54C217.426 81.54 216.526 81.27 215.806 80.73C215.086 80.13 214.726 79.26 214.726 78.12C214.726 77.28 214.906 76.23 215.266 74.97C215.626 73.23 215.896 71.64 216.076 70.2C216.316 68.7 216.436 66.9 216.436 64.8ZM233.356 72.99C236.296 72.99 238.756 71.97 240.736 69.93C242.716 67.83 243.706 65.01 243.706 61.47C243.706 58.23 242.836 55.44 241.096 53.1C240.496 52.32 239.626 51.69 238.486 51.21C237.406 50.73 236.326 50.49 235.246 50.49C232.726 50.49 230.596 51.24 228.856 52.74C227.116 54.18 226.126 56.19 225.886 58.77C225.646 62.25 225.526 65.25 225.526 67.77C226.246 69.15 227.326 70.38 228.766 71.46C230.266 72.48 231.796 72.99 233.356 72.99Z" fill="#E95B9A"/>
<path d="M299.644 68.76C300.784 68.76 301.624 69.21 302.164 70.11C302.764 70.95 303.064 71.88 303.064 72.9C303.064 74.16 302.854 75.06 302.434 75.6C302.074 76.08 301.354 76.59 300.274 77.13C297.754 78.33 294.634 79.29 290.914 80.01C287.194 80.73 283.204 81.09 278.944 81.09C273.604 81.09 269.674 80.19 267.154 78.39C264.694 76.59 263.164 74.43 262.564 71.91C262.024 69.33 261.754 65.97 261.754 61.83C261.754 57.39 261.934 53.04 262.294 48.78C262.654 44.46 263.284 38.97 264.184 32.31C264.604 29.43 265.744 27.36 267.604 26.1C269.464 24.78 271.504 24.12 273.724 24.12C275.584 24.12 278.614 24.06 282.814 23.94L290.644 23.85C293.884 23.85 296.224 23.94 297.664 24.12C299.464 24.48 300.784 24.9 301.624 25.38C302.524 25.8 302.974 26.55 302.974 27.63C302.974 28.83 302.554 30 301.714 31.14C300.934 32.28 299.734 32.85 298.114 32.85C296.254 32.85 293.584 32.73 290.104 32.49C286.624 32.25 284.014 32.13 282.274 32.13C280.774 32.13 279.304 32.22 277.864 32.4C276.184 32.52 274.984 32.73 274.264 33.03C273.544 33.33 273.124 33.84 273.004 34.56C272.164 40.74 271.744 45.3 271.744 48.24C273.124 48.42 274.474 48.51 275.794 48.51C277.474 48.51 279.274 48.42 281.194 48.24C283.114 48.06 284.344 47.94 284.884 47.88C288.064 47.58 290.794 47.43 293.074 47.43C294.394 47.43 295.384 47.67 296.044 48.15C296.764 48.63 297.124 49.29 297.124 50.13C297.124 51.45 296.764 52.47 296.044 53.19C295.384 53.91 294.184 54.45 292.444 54.81C290.344 55.23 287.734 55.56 284.614 55.8C281.554 56.04 278.554 56.16 275.614 56.16C274.594 56.16 273.184 56.1 271.384 55.98C271.204 59.64 271.114 63.03 271.114 66.15C271.114 70.41 273.934 72.54 279.574 72.54C282.574 72.54 285.064 72.33 287.044 71.91C289.024 71.49 291.304 70.89 293.884 70.11C296.284 69.21 298.204 68.76 299.644 68.76ZM309.792 46.17C309.852 45.27 310.212 44.34 310.872 43.38C311.592 42.42 312.522 41.94 313.662 41.94C314.862 41.94 315.912 42.27 316.812 42.93C317.712 43.59 318.342 44.28 318.702 45C318.942 45.48 319.932 46.77 321.672 48.87C322.572 49.89 323.412 50.88 324.192 51.84C324.492 52.2 324.912 52.71 325.452 53.37C325.992 54.03 326.502 54.63 326.982 55.17C328.422 53.31 329.742 51.42 330.942 49.5L334.452 44.1C335.652 42.48 337.092 41.67 338.772 41.67C339.972 41.67 340.932 41.97 341.652 42.57C342.372 43.11 342.732 43.77 342.732 44.55C342.672 45.51 342.282 46.71 341.562 48.15C340.782 49.71 339.552 51.72 337.872 54.18C336.192 56.64 334.362 59.04 332.382 61.38L334.002 63.45C335.982 66.03 337.692 68.16 339.132 69.84C340.632 71.52 342.012 72.69 343.272 73.35C343.512 73.47 343.962 73.68 344.622 73.98C345.282 74.28 345.792 74.64 346.152 75.06C346.512 75.42 346.692 75.84 346.692 76.32C346.692 77.64 346.152 78.78 345.072 79.74C344.052 80.7 342.852 81.18 341.472 81.18C340.212 81.18 338.742 80.43 337.062 78.93C335.442 77.37 333.402 75.12 330.942 72.18C329.022 69.9 327.732 68.43 327.072 67.77C322.752 73.89 319.422 77.97 317.082 80.01C316.542 80.61 315.822 81.09 314.922 81.45C314.082 81.81 313.272 81.99 312.492 81.99C311.412 81.99 310.452 81.75 309.612 81.27C308.772 80.79 308.382 79.98 308.442 78.84C308.442 78.54 308.652 78.09 309.072 77.49C309.552 76.83 309.822 76.44 309.882 76.32C310.842 74.76 312.822 72.42 315.822 69.3C317.982 67.02 319.812 64.71 321.312 62.37L316.812 56.25C312.132 51.57 309.792 48.21 309.792 46.17Z" fill="#FCA030"/>
<path d="M50.4952 6.19788C50.9201 6.21431 51.309 6.26817 51.7221 6.36615C53.0349 6.67744 54.5312 7.41854 55.6076 8.22153C55.8407 8.39541 56.1774 8.63984 56.3289 8.88703L38.8918 14.4006L35.7022 15.3032C35.2419 15.4321 34.6069 15.6905 34.129 15.677L36.4949 14.1527L42.6988 10.3241L46.3465 8.0299C47.078 7.56664 47.7987 7.04292 48.5798 6.66903C49.205 6.36976 49.809 6.2579 50.4952 6.19788Z" fill="#C9695A"/>
<path d="M46.809 88.0239C48.0568 88.4859 49.4413 88.7675 50.7729 88.579C51.5454 88.4698 52.3141 88.1942 53.0192 87.8686L85.9652 72.2765C85.356 74.3581 83.892 76.1694 81.9825 77.2061C81.4294 77.5064 80.8262 77.7321 80.255 77.9984L76.3307 79.8452L62.8173 86.3144L53.3998 90.924L50.0742 92.5567C49.5719 92.7951 49.0428 93.0912 48.5117 93.2514C48.1954 93.3467 47.8164 93.3172 47.489 93.3067C46.4248 93.2724 45.3824 93.0963 44.3629 92.786C43.5803 92.5478 42.8707 92.2157 42.1802 91.7782C41.9612 91.6394 41.6949 91.4869 41.505 91.3104C41.5319 91.2882 41.5141 91.2999 41.5668 91.2834C42.8888 90.8691 44.0886 90.0713 45.2077 89.2746C45.7593 88.8821 46.3189 88.4941 46.809 88.0239Z" fill="url(#paint0_linear_0_1)"/>
<path d="M55.1717 79.3302C55.8408 79.3761 56.5069 79.3936 57.1498 79.1737C57.6593 78.9995 58.1516 78.7422 58.638 78.5109L60.6287 77.5755L66.1656 75.0544L85.1176 66.8422L91.4181 64.1104C90.8748 66.1931 89.9027 68.1417 87.9717 69.2609L54.4985 85.0684L55.1717 79.3302Z" fill="#5338A8"/>
<path d="M56.2177 67.9113C58.0012 69.0867 60.3218 70.0563 62.4963 69.6019C63.7219 69.3458 64.934 68.7631 66.1078 68.3224L72.9144 65.7742L86.3552 60.7118L91.2058 58.9003L94.2544 57.7243C94.8596 57.4629 95.3722 57.0506 95.8919 56.6535C95.6739 58.3657 95.0981 59.7651 93.7014 60.8629C92.6049 61.7248 91.0821 62.2294 89.8046 62.776L85.5118 64.6083L73.4517 69.7843L69.1553 71.738L61.381 75.1509L58.405 76.5302C57.8951 76.7737 57.3868 77.0641 56.8613 77.2697C56.4364 77.4359 55.9136 77.4255 55.4625 77.4278L56.2177 67.9113Z" fill="#EB2772"/>
<path d="M7.34239 34.1466C7.33718 34.4417 7.25838 34.7368 7.25149 35.0352C7.22371 36.2406 7.47543 37.4823 7.9708 38.5826C8.5043 39.7676 9.27 40.9154 9.93455 42.035L12.8199 46.9572L22.7898 63.923L33.4658 82.0655L36.8917 87.9112C37.5244 89.0014 38.116 90.1937 38.8411 91.2198C39.3263 91.9066 40.0302 92.46 40.7226 92.9256C42.1721 93.9 43.6688 94.5355 45.3898 94.8228L42.8451 96.0869C42.4053 96.2988 41.9386 96.5649 41.4623 96.6826C40.7075 96.8701 39.8532 96.8438 39.0889 96.7403C38.0015 96.562 36.9162 96.1481 36.0361 95.4757C35.5929 95.137 35.1388 94.7406 34.8024 94.2933L33.5509 92.4664L29.4763 86.4602L16.3146 66.9877L5.46867 50.8571L3.09194 47.2927C2.65236 46.6393 2.17811 45.9985 1.77913 45.3196C1.3724 44.6274 1.10888 43.8602 0.993388 43.0674C0.943994 42.7283 0.934482 42.3993 0.95414 42.0572C1.01617 40.9771 1.37528 39.9544 2.04099 39.0964C2.70158 38.245 3.64045 37.5423 4.43477 36.8135L7.34239 34.1466Z" fill="#C9695A"/>
<path d="M41.505 91.3104C41.1262 91.0381 40.7933 90.7221 40.4665 90.3911C40.0779 89.9976 39.8911 89.5788 39.626 89.1049L38.778 87.6382L34.2294 79.8585L16.781 50.2367L11.4284 41.0942L9.87634 38.4042C9.34158 37.36 9.07537 36.3813 9.08728 35.2025C9.10427 33.5093 9.87722 31.9314 10.9858 30.6777C11.5918 29.9924 12.3173 29.3632 12.9616 28.7088L16.1833 25.4598C16.1846 25.78 16.0913 26.1255 16.0792 26.4554C16.0378 27.5881 16.2724 28.6293 16.7175 29.6641L20.3024 37.2292L24.0343 45.0309L35.6137 69.1895L40.5875 79.894L41.8214 82.5402C42.1498 83.2699 42.4284 84.0582 42.8578 84.7349C43.7764 86.1826 45.211 87.3898 46.809 88.0239C46.3189 88.4941 45.7593 88.882 45.2077 89.2746C44.0886 90.0713 42.8888 90.8691 41.5668 91.2834C41.5141 91.2999 41.5319 91.2882 41.505 91.3104Z" fill="#A98DD1"/>
<path d="M55.4625 77.4278C54.4132 77.3159 53.4015 77.0858 52.4424 76.6346C51.2079 76.0539 50.2203 75.2697 49.5534 74.0676C49.2359 73.4951 49.0376 72.8906 48.8167 72.277L47.8835 69.7163L44.2578 60.2963L35.5552 38.2203L30.6941 25.6573C30.1055 23.9981 29.8906 22.3592 30.6831 20.7171C31.2137 19.6179 32.0794 18.7038 33.1396 18.1021C33.8666 17.6894 34.6756 17.5035 35.4748 17.2854L37.8817 16.621L42.2941 15.2718C41.0421 16.9878 40.229 19.0349 40.4828 21.1943C40.6161 22.3278 41.0605 23.425 41.4108 24.5054L42.5691 28.1818L48.2152 46.0703L51.9091 58.1586L53.0761 62.0793C53.3656 63.099 53.6022 64.1876 54.0052 65.168C54.4782 66.3189 55.2522 67.1511 56.2178 67.9113L55.4625 77.4278Z" fill="#E95B9A"/>
<path d="M54.4985 85.0684C53.4339 85.5996 52.335 86.312 51.201 86.6628C49.8661 87.0757 48.1613 86.727 46.9495 86.0878C45.9455 85.5583 44.9221 84.6762 44.3494 83.6894C43.919 82.9479 43.6133 82.1157 43.2554 81.3359L41.1517 76.8168L33.9982 61.7746L29.2645 51.9722L23.6079 40.0337L20.1968 32.915L18.9301 30.2444C18.6245 29.5913 18.2867 28.9314 18.0791 28.2396C17.6522 26.8172 17.8722 25.24 18.5707 23.9447C19.1106 22.9431 20.0096 22.0243 20.9933 21.4526C22.0907 20.8147 23.4954 20.5136 24.71 20.1469L29.7799 18.6241C28.9915 19.7901 28.4198 20.8909 28.3032 22.3162C28.2153 23.3896 28.3496 24.4343 28.6778 25.4567C29.4352 27.8159 30.4571 30.1158 31.3437 32.4308L38.1924 49.8201L45.2584 67.9012L47.1134 72.7685C47.3675 73.4538 47.5677 74.1748 47.8529 74.8457C48.0729 75.3635 48.3988 75.8317 48.7638 76.2571C50.3014 78.0492 52.8481 79.1448 55.1716 79.3302L54.4985 85.0684Z" fill="#33A5E4"/>
<path d="M84.1717 0.816677C85.445 0.672478 87.1252 1.20432 88.1478 1.96065C89.2457 2.77263 90.007 3.81521 90.4491 5.10611C90.7481 5.97942 90.8205 7.0323 90.9827 7.94874L92.262 15.9678L95.7737 40.4068L96.5884 46.3728L96.9472 49.0488C97.0468 49.8155 97.1748 50.5744 97.0791 51.3498C96.9492 52.4108 96.4812 53.3698 95.8425 54.215C95.2648 54.9796 94.4295 55.6861 93.5616 56.0973C92.9042 56.4089 92.1781 56.62 91.4913 56.8627L88.5424 57.9499L77.9658 61.9277L66.0351 66.3927L63.9283 67.1857C63.2789 67.4401 62.607 67.7519 61.9098 67.8435C60.2452 68.0622 58.2725 67.1399 56.9903 66.1394C56.4115 65.6358 55.9216 65.0699 55.6344 64.3514C55.3898 63.7394 55.264 63.0471 55.085 62.4112L54.1123 59.1651L49.4893 44.1379L44.4894 28.3134L43.1428 24.0499C42.8966 23.2579 42.629 22.4659 42.441 21.6578C42.0549 19.9988 42.4111 18.3401 43.3029 16.9089C43.9618 15.8514 44.9428 15.0657 46.0555 14.5282C46.9847 14.0794 48.0124 13.7727 48.9876 13.4349L52.5856 12.1656L63.604 8.21735L78.145 2.94499L81.5269 1.71468C82.3992 1.39115 83.2637 1.02583 84.1717 0.816677Z" fill="url(#paint1_linear_0_1)"/>
<path d="M69.197 39.3014L69.1993 39.3006C70.4952 39.1765 71.9995 39.3205 73.1003 40.0699C73.5919 40.4047 73.9567 40.899 74.0544 41.4928C74.2193 42.495 73.8498 43.5952 73.252 44.397C72.3939 45.5476 71.1903 46.0625 69.8105 46.2652C68.5734 46.3492 67.3554 46.0325 66.3584 45.2809C65.6003 44.7095 64.8977 43.7047 64.7654 42.7494C64.6836 42.1583 64.8311 41.6188 65.1929 41.1446C66.076 39.9874 67.8183 39.4857 69.197 39.3014Z" fill="black"/>
<path d="M69.2802 40.5696C70.274 40.4807 71.5453 40.5443 72.3896 41.1476C72.6412 41.3273 72.8123 41.5805 72.8575 41.8884C72.9321 42.396 72.5846 43.1338 72.2872 43.5457C71.6307 44.4547 70.7626 44.8302 69.683 44.9953C68.8295 45.013 68.1292 44.8729 67.3997 44.4137C66.7725 44.019 66.093 43.3037 65.9614 42.5428C65.9211 42.3098 66.0596 42.0841 66.1969 41.9079C66.8546 41.0639 68.2804 40.7038 69.2802 40.5696Z" fill="#E95B9A"/>
<path d="M55.2737 31.5379C56.9224 31.3979 58.4 31.8215 59.7422 32.7874C61.0359 33.7185 61.8866 35.1153 62.1304 36.6868C62.3936 38.3834 62.0026 39.9744 60.9816 41.3545C59.9216 42.7874 58.3573 43.5551 56.6284 43.8177C54.9671 43.9841 53.3464 43.509 52.0275 42.4823C50.8038 41.5298 49.9439 39.9499 49.7576 38.4145C49.554 36.7365 49.9633 35.1198 51.0091 33.7811C52.0852 32.4033 53.5786 31.7509 55.2737 31.5379Z" fill="black"/>
<path d="M53.8307 33.8278C54.265 33.7906 54.8178 33.886 55.1941 34.0992C55.6742 34.3712 56.0771 34.9464 56.1967 35.4829C56.3155 36.016 56.2208 36.6765 55.9259 37.1348C55.5568 37.7081 55.0058 38.0124 54.3579 38.1579C53.8329 38.1981 53.3956 38.1197 52.9418 37.8326C52.4305 37.5092 52.096 37.0217 51.9736 36.4262C51.8526 35.8372 51.9291 35.2282 52.284 34.7305C52.6752 34.1817 53.1715 33.9333 53.8307 33.8278Z" fill="#FEFEFE"/>
<path d="M82.0829 28.951L82.1194 28.9448C83.7162 28.806 85.3123 29.3345 86.5644 30.32C87.8197 31.3078 88.6243 32.8614 88.7953 34.441C88.9741 36.0931 88.5631 37.7188 87.5152 39.018C86.383 40.4218 84.9342 41.1208 83.1628 41.3149L83.1181 41.3221C81.5299 41.4642 79.8624 40.9302 78.6303 39.929C77.3619 38.8984 76.5857 37.3634 76.4164 35.7465C76.2452 34.112 76.6794 32.4749 77.729 31.201C78.8628 29.8247 80.3247 29.1278 82.0829 28.951Z" fill="black"/>
<path d="M80.1553 31.3843C80.6157 31.3431 81.0765 31.3553 81.5021 31.5565C82.0072 31.7952 82.4043 32.2524 82.577 32.7828C82.7614 33.3489 82.7055 34.0346 82.4295 34.559C82.1069 35.1718 81.6187 35.4518 80.9819 35.6428C80.432 35.7292 79.9226 35.6454 79.4355 35.3747C78.9587 35.1097 78.5999 34.6093 78.4653 34.0859C78.3075 33.4725 78.3666 32.8545 78.7097 32.3114C79.0507 31.7717 79.558 31.5348 80.1553 31.3843Z" fill="#FEFEFE"/>
<defs>
<linearGradient id="paint0_linear_0_1" x1="78.08" y1="88.8101" x2="49.3988" y2="75.1601" gradientUnits="userSpaceOnUse">
<stop stop-color="#543BAC"/>
<stop offset="1" stop-color="#7F6AC1"/>
</linearGradient>
<linearGradient id="paint1_linear_0_1" x1="99.0102" y1="38.401" x2="40.8521" y2="29.2433" gradientUnits="userSpaceOnUse">
<stop stop-color="#FC9225"/>
<stop offset="1" stop-color="#FAB943"/>
</linearGradient>
</defs>
</svg>